<svg width="32" height="32" viewBox="0 0 32 32" fill="none" xmlns="http://www.w3.org/2000/svg">
<path d="M10.3629 12.7738C9.96696 13.1588 9.95811 13.7919 10.3431 14.1879L15.2231 19.2064C15.4342 19.4234 15.7198 19.5242 16.0001 19.5075C16.2803 19.5242 16.5659 19.4234 16.777 19.2064L21.657 14.1879C22.042 13.7919 22.0332 13.1588 21.6372 12.7738C21.2413 12.3888 20.6082 12.3976 20.2231 12.7936L16.0001 17.1365L11.777 12.7936C11.392 12.3976 10.7589 12.3888 10.3629 12.7738Z" fill="#74A2B2"/>
<path d="M10.3629 12.7738C9.96696 13.1588 9.95811 13.7919 10.3431 14.1879L15.2231 19.2064C15.4342 19.4234 15.7198 19.5242 16.0001 19.5075C16.2803 19.5242 16.5659 19.4234 16.777 19.2064L21.657 14.1879C22.042 13.7919 22.0332 13.1588 21.6372 12.7738C21.2413 12.3888 20.6082 12.3976 20.2231 12.7936L16.0001 17.1365L11.777 12.7936C11.392 12.3976 10.7589 12.3888 10.3629 12.7738Z" fill="#5ED3F3"/>
</svg>
